<?xml version="1.0" encoding="UTF-8"?>
<!DOCTYPE svg PUBLIC "-//W3C//DTD SVG 1.1//EN" "http://www.w3.org/Graphics/SVG/1.1/DTD/svg11.dtd">
<!-- Creator: CorelDRAW X7 -->
<svg xmlns="http://www.w3.org/2000/svg" xml:space="preserve" width="381mm" height="381mm" version="1.1" style="shape-rendering:geometricPrecision; text-rendering:geometricPrecision; image-rendering:optimizeQuality; fill-rule:evenodd; clip-rule:evenodd"
viewBox="0 0 38100 38100"
 xmlns:xlink="http://www.w3.org/1999/xlink">
 <defs>
  <style type="text/css">
   <![CDATA[
    .str1 {stroke:#332C2B;stroke-width:338.66}
    .str0 {stroke:black;stroke-width:338.66}
    .fil2 {fill:url(#id0)}
    .fil1 {fill:url(#id1)}
    .fil0 {fill:url(#id2)}
   ]]>
  </style>
  <linearGradient id="id0" gradientUnits="userSpaceOnUse" x1="14203.5" y1="25426.1" x2="18156.1" y2="25145.3">
   <stop offset="0" style="stop-opacity:1; stop-color:#FFCC00"/>
   <stop offset="1" style="stop-opacity:1; stop-color:#FF7700"/>
  </linearGradient>
  <linearGradient id="id1" gradientUnits="userSpaceOnUse" xlink:href="#id0" x1="18928.1" y1="11998" x2="13431.5" y2="8584.43">
  </linearGradient>
  <linearGradient id="id2" gradientUnits="userSpaceOnUse" x1="11144.2" y1="22448" x2="21215.4" y2="16143">
   <stop offset="0" style="stop-opacity:1; stop-color:#FFCC00"/>
   <stop offset="1" style="stop-opacity:1; stop-color:#FA8500"/>
  </linearGradient>
 </defs>
 <g id="Layer_x0020_1">
  <metadata id="CorelCorpID_0Corel-Layer"/>
  <path class="fil0 str0" d="M19990 12692l-3810 3609 -3810 -3609 -4572 0 0 1515 0 10693c0,550 450,1000 1000,1000l3572 0 0 -7368 3810 3605 3810 -3605 0 7368 3572 0c550,0 1000,-450 1000,-1000l0 -10693 0 -1515 -4572 0z"/>
  <path class="fil1 str1" d="M11834 12692c845,-1530 2475,-2566 4346,-2566 1871,0 3500,1036 4345,2566l2443 0c-987,-2797 -3654,-4801 -6788,-4801 -3135,0 -5801,2004 -6788,4801l2442 0z"/>
  <rect class="fil2 str0" x="13013" y="24672" width="6333" height="1228"/>
 </g>
</svg>
